<svg class="Styles__SearchIcon-sc-4mixh6-1 jmTqIw" width="20px" height="20px" viewBox="0 0 20 20" version="1.1" xmlns="http://www.w3.org/2000/svg" role="img" aria-labelledby="328f639c-2e1e-4d3e-aad5-de21a9b45400">
                    <title id="328f639c-2e1e-4d3e-aad5-de21a9b45400">Search</title>
                    <g stroke="none" stroke-width="1" fill="none" fill-rule="evenodd">
                        <g transform="translate(-1217.000000, -57.000000)" fill="#000000" fill-rule="nonzero">
                            <g>
                                <path
                                    d="M1236.59048,75.4247619 L1231.82238,70.6566667 C1233.00429,69.2157143 1233.71667,67.37 1233.71667,65.3583333 C1233.71667,60.7440476 1229.97262,57 1225.35833,57 C1220.74,57 1217, 60.7440476 1217,65.3583333 C1217,69.972619 1220.74,73.7166667 1225.35833,73.7166667 C1227.37,73.7166667 1229.21167,73.0083333 1230.65262,71.8264286 L1235.42071,76.5904762 C1235.74452,76.9142857 1236.26667,76.9142857 1236.59048,76.5904762 C1236.91429,76.2707143 1236.91429,75.7445238 1236.59048,75.4247619 Z M1225.35833,72.0530952 C1221.66286,72.0530952 1218.65952,69.0497619 1218.65952,65.3583333 C1218.65952,61.6669048 1221.66286,58.6595238 1225.35833,58.6595238 C1229.04976,58.6595238 1232.05714,61.6669048 1232.05714,65.3583333 C1232.05714,69.0497619 1229.04976,72.0530952 1225.35833,72.0530952 Z">
                                </path>
                            </g>
                        </g>
                    </g>
                </svg>