<svg width="16" height="20" viewBox="0 0 16 20" fill="none" xmlns="http://www.w3.org/2000/svg" role="img" aria-labelledby="e0193e51-b180-4196-8e27-39b6538e9ffb"><title id="e0193e51-b180-4196-8e27-39b6538e9ffb">Grid View</title><mask id="path-1-inside-1" fill="white"><path fill-rule="evenodd" clip-rule="evenodd" d="M1.5 1.5H5.5V7.5H1.5V1.5ZM0 0H1.5H5.5H7V1.5V7.5V9H5.5H1.5H0V7.5V1.5V0ZM1.5 12.5H5.5V18.5H1.5V12.5ZM0 11H1.5H5.5H7V12.5V18.5V20H5.5H1.5H0V18.5V12.5V11ZM14.5 12.5H10.5V18.5H14.5V12.5ZM10.5 11H9V12.5V18.5V20H10.5H14.5H16V18.5V12.5V11H14.5H10.5ZM10.5 1.5H14.5V7.5H10.5V1.5ZM9 0H10.5H14.5H16V1.5V7.5V9H14.5H10.5H9V7.5V1.5V0Z"></path></mask><path d="M5.5 1.5H7V0H5.5V1.5ZM1.5 1.5V0H0V1.5H1.5ZM5.5 7.5V9H7V7.5H5.5ZM1.5 7.5H0V9H1.5V7.5ZM0 0V-1.5H-1.5V0H0ZM7 0H8.5V-1.5H7V0ZM7 9V10.5H8.5V9H7ZM0 9H-1.5V10.5H0V9ZM5.5 12.5H7V11H5.5V12.5ZM1.5 12.5V11H0V12.5H1.5ZM5.5 18.5V20H7V18.5H5.5ZM1.5 18.5H0V20H1.5V18.5ZM0 11V9.5H-1.5V11H0ZM7 11H8.5V9.5H7V11ZM7 20V21.5H8.5V20H7ZM0 20H-1.5V21.5H0V20ZM10.5 12.5V11H9V12.5H10.5ZM14.5 12.5H16V11H14.5V12.5ZM10.5 18.5H9V20H10.5V18.5ZM14.5 18.5V20H16V18.5H14.5ZM9 11V9.5H7.5V11H9ZM9 20H7.5V21.5H9V20ZM16 20V21.5H17.5V20H16ZM16 11H17.5V9.5H16V11ZM14.5 1.5H16V0H14.5V1.5ZM10.5 1.5V0H9V1.5H10.5ZM14.5 7.5V9H16V7.5H14.5ZM10.5 7.5H9V9H10.5V7.5ZM9 0V-1.5H7.5V0H9ZM16 0H17.5V-1.5H16V0ZM16 9V10.5H17.5V9H16ZM9 9H7.5V10.5H9V9ZM5.5 0H1.5V3H5.5V0ZM7 7.5V1.5H4V7.5H7ZM1.5 9H5.5V6H1.5V9ZM0 1.5V7.5H3V1.5H0ZM1.5 -1.5H0V1.5H1.5V-1.5ZM5.5 -1.5H1.5V1.5H5.5V-1.5ZM7 -1.5H5.5V1.5H7V-1.5ZM8.5 1.5V0H5.5V1.5H8.5ZM8.5 7.5V1.5H5.5V7.5H8.5ZM8.5 9V7.5H5.5V9H8.5ZM5.5 10.5H7V7.5H5.5V10.5ZM1.5 10.5H5.5V7.5H1.5V10.5ZM0 10.5H1.5V7.5H0V10.5ZM-1.5 7.5V9H1.5V7.5H-1.5ZM-1.5 1.5V7.5H1.5V1.5H-1.5ZM-1.5 0V1.5H1.5V0H-1.5ZM5.5 11H1.5V14H5.5V11ZM7 18.5V12.5H4V18.5H7ZM1.5 20H5.5V17H1.5V20ZM0 12.5V18.5H3V12.5H0ZM1.5 9.5H0V12.5H1.5V9.5ZM5.5 9.5H1.5V12.5H5.5V9.5ZM7 9.5H5.5V12.5H7V9.5ZM8.5 12.5V11H5.5V12.5H8.5ZM8.5 18.5V12.5H5.5V18.5H8.5ZM8.5 20V18.5H5.5V20H8.5ZM5.5 21.5H7V18.5H5.5V21.5ZM1.5 21.5H5.5V18.5H1.5V21.5ZM0 21.5H1.5V18.5H0V21.5ZM-1.5 18.5V20H1.5V18.5H-1.5ZM-1.5 12.5V18.5H1.5V12.5H-1.5ZM-1.5 11V12.5H1.5V11H-1.5ZM10.5 14H14.5V11H10.5V14ZM12 18.5V12.5H9V18.5H12ZM14.5 17H10.5V20H14.5V17ZM13 12.5V18.5H16V12.5H13ZM9 12.5H10.5V9.5H9V12.5ZM10.5 12.5V11H7.5V12.5H10.5ZM10.5 18.5V12.5H7.5V18.5H10.5ZM10.5 20V18.5H7.5V20H10.5ZM10.5 18.5H9V21.5H10.5V18.5ZM14.5 18.5H10.5V21.5H14.5V18.5ZM16 18.5H14.5V21.5H16V18.5ZM14.5 18.5V20H17.5V18.5H14.5ZM14.5 12.5V18.5H17.5V12.5H14.5ZM14.5 11V12.5H17.5V11H14.5ZM14.5 12.5H16V9.5H14.5V12.5ZM10.5 12.5H14.5V9.5H10.5V12.5ZM14.5 0H10.5V3H14.5V0ZM16 7.5V1.5H13V7.5H16ZM10.5 9H14.5V6H10.5V9ZM9 1.5V7.5H12V1.5H9ZM10.5 -1.5H9V1.5H10.5V-1.5ZM14.5 -1.5H10.5V1.5H14.5V-1.5ZM16 -1.5H14.5V1.5H16V-1.5ZM17.5 1.5V0H14.5V1.5H17.5ZM17.5 7.5V1.5H14.5V7.5H17.5ZM17.5 9V7.5H14.5V9H17.5ZM14.5 10.5H16V7.5H14.5V10.5ZM10.5 10.5H14.5V7.5H10.5V10.5ZM9 10.5H10.5V7.5H9V10.5ZM7.5 7.5V9H10.5V7.5H7.5ZM7.5 1.5V7.5H10.5V1.5H7.5ZM7.5 0V1.5H10.5V0H7.5Z" fill="black" mask="url(#path-1-inside-1)"></path></svg>