<svg width="24" height="24" viewBox="0 0 24 24" fill="none" xmlns="http://www.w3.org/2000/svg" role="img"><path fill-rule="evenodd" clip-rule="evenodd" d="M4.43785 5.44294C6.35498 3.51902 9.46346 3.51902 11.3806 5.44294C11.6162 5.67942 11.8224 5.93562 12 6.20413C12.1776 5.93562 12.3829 5.68025 12.6194 5.44294C14.5365 3.51902 17.645 3.51902 19.5622 5.44294C21.4212 7.30855 21.4775 10.2984 19.7312 12.2321L19.5622 12.4103L11.9992 20L4.43785 12.4103C2.52072 10.4863 2.52072 7.36685 4.43785 5.44294ZM18.4996 6.50172C17.1687 5.16609 15.0129 5.16609 13.6819 6.50172C13.5751 6.60898 13.4758 6.72321 13.3838 6.84443L13.2512 7.0315L12 8.9236L10.7488 7.0315C10.6219 6.83962 10.4779 6.66212 10.3181 6.50172C8.98714 5.16609 6.8313 5.16609 5.50038 6.50172C4.21418 7.79248 4.16824 9.85879 5.36268 11.205L5.50049 11.3516L11.999 17.875L18.4996 11.3515C19.7858 10.0607 19.8318 7.99441 18.6374 6.64826L18.4996 6.50172Z" fill="black"></path></svg>